<svg id="Layer_1" data-name="Layer 1" xmlns="http://www.w3.org/2000/svg" viewBox="0 0 32 32"><defs><style>.cls-1{fill:#fff;}.cls-2{fill:#364585;}</style></defs><rect class="cls-1" x="0.16" y="-0.05" width="31.66" height="32.04"/><path class="cls-2" d="M14.89,2.7,7.69,7.15a.26.26,0,0,0-.13.22q0,7,0,13.82a.81.81,0,0,1-.89.92h0a.78.78,0,0,1-.9-.88V6.67A.84.84,0,0,1,6.13,6Q10.8,3.05,15.44.2A.91.91,0,0,1,16.85,1V19a.06.06,0,0,0,0,.06h0a26.54,26.54,0,0,0,4.19-2.6,7.82,7.82,0,0,0,3.29-7.11A8.25,8.25,0,0,0,19,2.22C18.46,2,18,1.6,18.26,1c.29-.81,1-.71,1.65-.43a10.09,10.09,0,0,1,5.84,12.61A11,11,0,0,1,21,18.82a44.83,44.83,0,0,1-4,2.31.18.18,0,0,0-.1.16V31a1,1,0,0,1-.19.59c-.41.57-1,.37-1.5.07l-8.44-5c-.19-.11-.38-.22-.56-.34a.92.92,0,0,1,.08-1.61q4.37-2.34,8.69-4.62A.17.17,0,0,0,15,20V2.76Q15,2.63,14.89,2.7ZM8.63,25.55a.06.06,0,0,0,0,.09l0,0,6.27,3.69a.07.07,0,0,0,.1,0V22.27a.06.06,0,0,0-.06-.06h0Z"/><path class="cls-2" d="M10.56,15.92a.91.91,0,0,1-1.82,0h0a.91.91,0,0,1,1.82,0Z"/></svg>